<?xml version="1.0" standalone="no"?>
<!DOCTYPE svg PUBLIC "-//W3C//DTD SVG 20010904//EN"
 "http://www.w3.org/TR/2001/REC-SVG-20010904/DTD/svg10.dtd">
<svg version="1.0" xmlns="http://www.w3.org/2000/svg"
 width="225.000000pt" height="225.000000pt" viewBox="0 0 225.000000 225.000000"
 preserveAspectRatio="xMidYMid meet">

<g transform="translate(0.000000,225.000000) scale(0.100000,-0.100000)"
fill="#000000" stroke="none">
<path d="M637 1563 c-241 -241 -445 -450 -453 -465 -18 -35 -18 -62 2 -104 20
-43 59 -64 116 -64 l42 0 391 390 391 390 387 -389 c288 -290 394 -391 417
-396 91 -20 168 60 146 152 -5 19 -155 176 -454 476 l-447 447 -50 0 -49 0
-439 -437z"/>
</g>
</svg>
